{
	"asset":{
		"generator":"Khronos glTF Blender I/O v4.3.47",
		"version":"2.0"
	},
	"extensionsUsed":[
		"KHR_materials_specular"
	],
	"scene":0,
	"scenes":[
		{
			"name":"Scene",
			"nodes":[
				0,
				1,
				2,
				3,
				4,
				5,
				6,
				7,
				8,
				9,
				10,
				11,
				12
			]
		}
	],
	"nodes":[
		{
			"mesh":0,
			"name":"Box483",
			"rotation":[
				0,
				-0.7071068286895752,
				0,
				0.7071067094802856
			],
			"scale":[
				0.198293998837471,
				0.198293998837471,
				0.198293998837471
			],
			"translation":[
				1.09514582157135,
				-3.043606758117676,
				-2.038165330886841
			]
		},
		{
			"mesh":1,
			"name":"Box484",
			"rotation":[
				0,
				-0.7071068286895752,
				0,
				0.7071067094802856
			],
			"scale":[
				0.198293998837471,
				0.198293998837471,
				0.198293998837471
			],
			"translation":[
				1.0951457023620605,
				-2.0521364212036133,
				-1.2945507764816284
			]
		},
		{
			"mesh":2,
			"name":"Box485",
			"rotation":[
				0,
				-0.7071068286895752,
				0,
				0.7071067094802856
			],
			"scale":[
				0.198293998837471,
				0.198293998837471,
				0.198293998837471
			],
			"translation":[
				1.09514582157135,
				-2.0521364212036133,
				-1.5919917821884155
			]
		},
		{
			"mesh":3,
			"name":"Box487",
			"rotation":[
				-0.7071068286895752,
				0,
				0.7071067094802856,
				2.065181092802959e-07
			],
			"scale":[
				0.198293998837471,
				0.198293998837471,
				0.198293998837471
			],
			"translation":[
				1.0951566696166992,
				13.811387062072754,
				-1.591994047164917
			]
		},
		{
			"mesh":4,
			"name":"Box488",
			"rotation":[
				-0.7071068286895752,
				0,
				0.7071067094802856,
				2.065181092802959e-07
			],
			"scale":[
				0.198293998837471,
				0.198293998837471,
				0.198293998837471
			],
			"translation":[
				1.0951566696166992,
				13.811387062072754,
				-1.2945531606674194
			]
		},
		{
			"mesh":5,
			"name":"Box490",
			"rotation":[
				0,
				-0.7071068286895752,
				0,
				0.7071067094802856
			],
			"scale":[
				0.198293998837471,
				0.198293998837471,
				0.198293998837471
			],
			"translation":[
				-15.75985050201416,
				-1.9034159183502197,
				-1.294553518295288
			]
		},
		{
			"mesh":6,
			"name":"Box491",
			"rotation":[
				0,
				-0.7071068286895752,
				0,
				0.7071067094802856
			],
			"scale":[
				0.198293998837471,
				0.198293998837471,
				0.198293998837471
			],
			"translation":[
				-7.33235502243042,
				-1.6456332206726074,
				11.908411026000977
			]
		},
		{
			"mesh":7,
			"name":"Box486.001",
			"rotation":[
				0,
				-0.7071068286895752,
				0,
				0.7071067094802856
			],
			"scale":[
				0.198293998837471,
				0.198293998837471,
				0.198293998837471
			],
			"translation":[
				1.09514582157135,
				-1.9034159183502197,
				-1.591991901397705
			]
		},
		{
			"mesh":8,
			"name":"Box489.001",
			"rotation":[
				0,
				-0.7071068286895752,
				0,
				0.7071067094802856
			],
			"scale":[
				0.198293998837471,
				0.198293998837471,
				0.198293998837471
			],
			"translation":[
				9.5226411819458,
				-1.6456332206726074,
				11.61097240447998
			]
		},
		{
			"mesh":9,
			"name":"Cylinder179",
			"scale":[
				0.198293998837471,
				0.198293998837471,
				0.198293998837471
			],
			"translation":[
				-1.378515362739563,
				-2.8188652992248535,
				4.462250709533691
			]
		},
		{
			"mesh":10,
			"name":"Cylinder180",
			"scale":[
				0.198293998837471,
				0.198293998837471,
				0.198293998837471
			],
			"translation":[
				0.6249677538871765,
				-2.8188652992248535,
				3.824554443359375
			]
		},
		{
			"mesh":11,
			"name":"Cylinder181",
			"scale":[
				0.198293998837471,
				0.198293998837471,
				0.198293998837471
			],
			"translation":[
				2.7093210220336914,
				-2.8188652992248535,
				3.8620948791503906
			]
		},
		{
			"mesh":12,
			"name":"Cylinder182",
			"scale":[
				0.198293998837471,
				0.198293998837471,
				0.198293998837471
			],
			"translation":[
				4.286797523498535,
				-2.8188652992248535,
				3.5271286964416504
			]
		}
	],
	"materials":[
		{
			"doubleSided":true,
			"extensions":{
				"KHR_materials_specular":{
					"specularColorFactor":[
						2.0,
						2.0,
						2.0
					]
				}
			},
			"name":"Material #25",
			"pbrMetallicRoughness":{
				"baseColorFactor":[
					0.5,
					0.5,
					0.5,
					1
				],
				"metallicFactor":0,
				"roughnessFactor":0.5527864098548889
			}
		},
		{
			"doubleSided":true,
			"extensions":{
				"KHR_materials_specular":{
					"specularColorFactor":[
						2.0,
						2.0,
						2.0
					]
				}
			},
			"name":"Material #26",
			"pbrMetallicRoughness":{
				"baseColorFactor":[
					0.5,
					0.5,
					0.5,
					1
				],
				"metallicFactor":0,
				"roughnessFactor":0.5527864098548889
			}
		},
		{
			"doubleSided":true,
			"extensions":{
				"KHR_materials_specular":{
					"specularColorFactor":[
						2.0,
						2.0,
						2.0
					]
				}
			},
			"name":"Material #27",
			"pbrMetallicRoughness":{
				"baseColorFactor":[
					0.501960813999176,
					0.8509804010391235,
					0.9019607901573181,
					1
				],
				"metallicFactor":0,
				"roughnessFactor":0.5527864098548889
			}
		},
		{
			"doubleSided":true,
			"extensions":{
				"KHR_materials_specular":{
					"specularColorFactor":[
						2.0,
						2.0,
						2.0
					]
				}
			},
			"name":"Material #28",
			"pbrMetallicRoughness":{
				"baseColorFactor":[
					0.5,
					0.5,
					0.5,
					1
				],
				"metallicFactor":0,
				"roughnessFactor":0.5527864098548889
			}
		},
		{
			"doubleSided":true,
			"extensions":{
				"KHR_materials_specular":{
					"specularColorFactor":[
						2.0,
						2.0,
						2.0
					]
				}
			},
			"name":"Material #29",
			"pbrMetallicRoughness":{
				"baseColorFactor":[
					0.501960813999176,
					0.8509804010391235,
					0.9019607901573181,
					1
				],
				"metallicFactor":0,
				"roughnessFactor":0.5527864098548889
			}
		},
		{
			"doubleSided":true,
			"extensions":{
				"KHR_materials_specular":{
					"specularColorFactor":[
						2.0,
						2.0,
						2.0
					]
				}
			},
			"name":"Material #30",
			"pbrMetallicRoughness":{
				"baseColorFactor":[
					0.5,
					0.5,
					0.5,
					1
				],
				"metallicFactor":0,
				"roughnessFactor":0.5527864098548889
			}
		},
		{
			"doubleSided":true,
			"extensions":{
				"KHR_materials_specular":{
					"specularColorFactor":[
						2.0,
						2.0,
						2.0
					]
				}
			},
			"name":"Material #31",
			"pbrMetallicRoughness":{
				"baseColorFactor":[
					0.5,
					0.5,
					0.5,
					1
				],
				"metallicFactor":0,
				"roughnessFactor":0.5527864098548889
			}
		},
		{
			"doubleSided":true,
			"extensions":{
				"KHR_materials_specular":{
					"specularColorFactor":[
						2.0,
						2.0,
						2.0
					]
				}
			},
			"name":"Material #32",
			"pbrMetallicRoughness":{
				"baseColorFactor":[
					0.5,
					0.5,
					0.5,
					1
				],
				"metallicFactor":0,
				"roughnessFactor":0.5527864098548889
			}
		},
		{
			"doubleSided":true,
			"extensions":{
				"KHR_materials_specular":{
					"specularColorFactor":[
						2.0,
						2.0,
						2.0
					]
				}
			},
			"name":"Material #33",
			"pbrMetallicRoughness":{
				"baseColorFactor":[
					0.5,
					0.5,
					0.5,
					1
				],
				"metallicFactor":0,
				"roughnessFactor":0.5527864098548889
			}
		}
	],
	"meshes":[
		{
			"name":"\u041c\u0435\u0448",
			"primitives":[
				{
					"attributes":{
						"POSITION":0,
						"NORMAL":1,
						"TEXCOORD_0":2
					},
					"indices":3,
					"material":0
				}
			]
		},
		{
			"name":"\u041c\u0435\u0448.001",
			"primitives":[
				{
					"attributes":{
						"POSITION":4,
						"NORMAL":5,
						"TEXCOORD_0":6
					},
					"indices":7,
					"material":0
				}
			]
		},
		{
			"name":"\u041c\u0435\u0448.002",
			"primitives":[
				{
					"attributes":{
						"POSITION":8,
						"NORMAL":9,
						"TEXCOORD_0":10
					},
					"indices":7,
					"material":0
				}
			]
		},
		{
			"name":"\u041c\u0435\u0448.003",
			"primitives":[
				{
					"attributes":{
						"POSITION":11,
						"NORMAL":12,
						"TEXCOORD_0":13
					},
					"indices":7,
					"material":0
				}
			]
		},
		{
			"name":"\u041c\u0435\u0448.004",
			"primitives":[
				{
					"attributes":{
						"POSITION":14,
						"NORMAL":15,
						"TEXCOORD_0":16
					},
					"indices":7,
					"material":0
				}
			]
		},
		{
			"name":"\u041c\u0435\u0448.005",
			"primitives":[
				{
					"attributes":{
						"POSITION":17,
						"NORMAL":18,
						"TEXCOORD_0":19
					},
					"indices":20,
					"material":1
				}
			]
		},
		{
			"name":"\u041c\u0435\u0448.006",
			"primitives":[
				{
					"attributes":{
						"POSITION":21,
						"NORMAL":22,
						"TEXCOORD_0":23
					},
					"indices":24,
					"material":2
				}
			]
		},
		{
			"name":"\u041c\u0435\u0448.007",
			"primitives":[
				{
					"attributes":{
						"POSITION":25,
						"NORMAL":26,
						"TEXCOORD_0":27
					},
					"indices":28,
					"material":3
				}
			]
		},
		{
			"name":"\u041c\u0435\u0448.008",
			"primitives":[
				{
					"attributes":{
						"POSITION":29,
						"NORMAL":30,
						"TEXCOORD_0":31
					},
					"indices":24,
					"material":4
				}
			]
		},
		{
			"name":"\u041c\u0435\u0448.009",
			"primitives":[
				{
					"attributes":{
						"POSITION":32,
						"NORMAL":33,
						"TEXCOORD_0":34
					},
					"indices":35,
					"material":5
				}
			]
		},
		{
			"name":"\u041c\u0435\u0448.010",
			"primitives":[
				{
					"attributes":{
						"POSITION":36,
						"NORMAL":37,
						"TEXCOORD_0":38
					},
					"indices":35,
					"material":6
				}
			]
		},
		{
			"name":"\u041c\u0435\u0448.011",
			"primitives":[
				{
					"attributes":{
						"POSITION":39,
						"NORMAL":40,
						"TEXCOORD_0":41
					},
					"indices":35,
					"material":7
				}
			]
		},
		{
			"name":"\u041c\u0435\u0448.012",
			"primitives":[
				{
					"attributes":{
						"POSITION":42,
						"NORMAL":43,
						"TEXCOORD_0":44
					},
					"indices":45,
					"material":8
				}
			]
		}
	],
	"accessors":[
		{
			"bufferView":0,
			"componentType":5126,
			"count":112,
			"max":[
				5,
				90,
				90
			],
			"min":[
				-5,
				0,
				-90
			],
			"type":"VEC3"
		},
		{
			"bufferView":1,
			"componentType":5126,
			"count":112,
			"type":"VEC3"
		},
		{
			"bufferView":2,
			"componentType":5126,
			"count":112,
			"type":"VEC2"
		},
		{
			"bufferView":3,
			"componentType":5123,
			"count":180,
			"type":"SCALAR"
		},
		{
			"bufferView":4,
			"componentType":5126,
			"count":64,
			"max":[
				0.75,
				1.2500001192092896,
				85
			],
			"min":[
				-0.75,
				0,
				-85
			],
			"type":"VEC3"
		},
		{
			"bufferView":5,
			"componentType":5126,
			"count":64,
			"type":"VEC3"
		},
		{
			"bufferView":6,
			"componentType":5126,
			"count":64,
			"type":"VEC2"
		},
		{
			"bufferView":7,
			"componentType":5123,
			"count":132,
			"type":"SCALAR"
		},
		{
			"bufferView":8,
			"componentType":5126,
			"count":64,
			"max":[
				0.75,
				1.2500001192092896,
				85
			],
			"min":[
				-0.75,
				0,
				-85
			],
			"type":"VEC3"
		},
		{
			"bufferView":9,
			"componentType":5126,
			"count":64,
			"type":"VEC3"
		},
		{
			"bufferView":10,
			"componentType":5126,
			"count":64,
			"type":"VEC2"
		},
		{
			"bufferView":11,
			"componentType":5126,
			"count":64,
			"max":[
				0.75,
				1.2500001192092896,
				85
			],
			"min":[
				-0.75,
				0,
				-85
			],
			"type":"VEC3"
		},
		{
			"bufferView":12,
			"componentType":5126,
			"count":64,
			"type":"VEC3"
		},
		{
			"bufferView":13,
			"componentType":5126,
			"count":64,
			"type":"VEC2"
		},
		{
			"bufferView":14,
			"componentType":5126,
			"count":64,
			"max":[
				0.75,
				1.2500001192092896,
				85
			],
			"min":[
				-0.75,
				0,
				-85
			],
			"type":"VEC3"
		},
		{
			"bufferView":15,
			"componentType":5126,
			"count":64,
			"type":"VEC3"
		},
		{
			"bufferView":16,
			"componentType":5126,
			"count":64,
			"type":"VEC2"
		},
		{
			"bufferView":17,
			"componentType":5126,
			"count":128,
			"max":[
				0.46875,
				78.50003051757812,
				0
			],
			"min":[
				-0.46875,
				0,
				-85
			],
			"type":"VEC3"
		},
		{
			"bufferView":18,
			"componentType":5126,
			"count":128,
			"type":"VEC3"
		},
		{
			"bufferView":19,
			"componentType":5126,
			"count":128,
			"type":"VEC2"
		},
		{
			"bufferView":20,
			"componentType":5123,
			"count":192,
			"type":"SCALAR"
		},
		{
			"bufferView":21,
			"componentType":5126,
			"count":8,
			"max":[
				0.23358154296875,
				75.9000244140625,
				41.19999694824219
			],
			"min":[
				-0.23358154296875,
				0,
				-41.19999694824219
			],
			"type":"VEC3"
		},
		{
			"bufferView":22,
			"componentType":5126,
			"count":8,
			"type":"VEC3"
		},
		{
			"bufferView":23,
			"componentType":5126,
			"count":8,
			"type":"VEC2"
		},
		{
			"bufferView":24,
			"componentType":5123,
			"count":12,
			"type":"SCALAR"
		},
		{
			"bufferView":25,
			"componentType":5126,
			"count":128,
			"max":[
				0.46875,
				78.50003051757812,
				0
			],
			"min":[
				-0.46875,
				0,
				-85
			],
			"type":"VEC3"
		},
		{
			"bufferView":26,
			"componentType":5126,
			"count":128,
			"type":"VEC3"
		},
		{
			"bufferView":27,
			"componentType":5126,
			"count":128,
			"type":"VEC2"
		},
		{
			"bufferView":28,
			"componentType":5123,
			"count":192,
			"type":"SCALAR"
		},
		{
			"bufferView":29,
			"componentType":5126,
			"count":8,
			"max":[
				0.23358154296875,
				75.9000244140625,
				41.19999694824219
			],
			"min":[
				-0.23358154296875,
				0,
				-41.19999694824219
			],
			"type":"VEC3"
		},
		{
			"bufferView":30,
			"componentType":5126,
			"count":8,
			"type":"VEC3"
		},
		{
			"bufferView":31,
			"componentType":5126,
			"count":8,
			"type":"VEC2"
		},
		{
			"bufferView":32,
			"componentType":5126,
			"count":182,
			"max":[
				0.6000000238418579,
				0.6228963136672974,
				0.5908846855163574
			],
			"min":[
				-0.5638156533241272,
				-1.1333751678466797,
				-0.5908846855163574
			],
			"type":"VEC3"
		},
		{
			"bufferView":33,
			"componentType":5126,
			"count":182,
			"type":"VEC3"
		},
		{
			"bufferView":34,
			"componentType":5126,
			"count":182,
			"type":"VEC2"
		},
		{
			"bufferView":35,
			"componentType":5123,
			"count":390,
			"type":"SCALAR"
		},
		{
			"bufferView":36,
			"componentType":5126,
			"count":182,
			"max":[
				0.6000000238418579,
				0.6228963136672974,
				0.5908846855163574
			],
			"min":[
				-0.5638156533241272,
				-1.1333751678466797,
				-0.5908846855163574
			],
			"type":"VEC3"
		},
		{
			"bufferView":37,
			"componentType":5126,
			"count":182,
			"type":"VEC3"
		},
		{
			"bufferView":38,
			"componentType":5126,
			"count":182,
			"type":"VEC2"
		},
		{
			"bufferView":39,
			"componentType":5126,
			"count":182,
			"max":[
				0.6000000238418579,
				0.6228963136672974,
				0.5908846855163574
			],
			"min":[
				-0.5638156533241272,
				-1.1333751678466797,
				-0.5908846855163574
			],
			"type":"VEC3"
		},
		{
			"bufferView":40,
			"componentType":5126,
			"count":182,
			"type":"VEC3"
		},
		{
			"bufferView":41,
			"componentType":5126,
			"count":182,
			"type":"VEC2"
		},
		{
			"bufferView":42,
			"componentType":5126,
			"count":182,
			"max":[
				0.6000000238418579,
				0.6228963136672974,
				0.5908846855163574
			],
			"min":[
				-0.5638156533241272,
				-1.1333751678466797,
				-0.5908846855163574
			],
			"type":"VEC3"
		},
		{
			"bufferView":43,
			"componentType":5126,
			"count":182,
			"type":"VEC3"
		},
		{
			"bufferView":44,
			"componentType":5126,
			"count":182,
			"type":"VEC2"
		},
		{
			"bufferView":45,
			"componentType":5123,
			"count":390,
			"type":"SCALAR"
		}
	],
	"bufferViews":[
		{
			"buffer":0,
			"byteLength":1344,
			"byteOffset":0,
			"target":34962
		},
		{
			"buffer":0,
			"byteLength":1344,
			"byteOffset":1344,
			"target":34962
		},
		{
			"buffer":0,
			"byteLength":896,
			"byteOffset":2688,
			"target":34962
		},
		{
			"buffer":0,
			"byteLength":360,
			"byteOffset":3584,
			"target":34963
		},
		{
			"buffer":0,
			"byteLength":768,
			"byteOffset":3944,
			"target":34962
		},
		{
			"buffer":0,
			"byteLength":768,
			"byteOffset":4712,
			"target":34962
		},
		{
			"buffer":0,
			"byteLength":512,
			"byteOffset":5480,
			"target":34962
		},
		{
			"buffer":0,
			"byteLength":264,
			"byteOffset":5992,
			"target":34963
		},
		{
			"buffer":0,
			"byteLength":768,
			"byteOffset":6256,
			"target":34962
		},
		{
			"buffer":0,
			"byteLength":768,
			"byteOffset":7024,
			"target":34962
		},
		{
			"buffer":0,
			"byteLength":512,
			"byteOffset":7792,
			"target":34962
		},
		{
			"buffer":0,
			"byteLength":768,
			"byteOffset":8304,
			"target":34962
		},
		{
			"buffer":0,
			"byteLength":768,
			"byteOffset":9072,
			"target":34962
		},
		{
			"buffer":0,
			"byteLength":512,
			"byteOffset":9840,
			"target":34962
		},
		{
			"buffer":0,
			"byteLength":768,
			"byteOffset":10352,
			"target":34962
		},
		{
			"buffer":0,
			"byteLength":768,
			"byteOffset":11120,
			"target":34962
		},
		{
			"buffer":0,
			"byteLength":512,
			"byteOffset":11888,
			"target":34962
		},
		{
			"buffer":0,
			"byteLength":1536,
			"byteOffset":12400,
			"target":34962
		},
		{
			"buffer":0,
			"byteLength":1536,
			"byteOffset":13936,
			"target":34962
		},
		{
			"buffer":0,
			"byteLength":1024,
			"byteOffset":15472,
			"target":34962
		},
		{
			"buffer":0,
			"byteLength":384,
			"byteOffset":16496,
			"target":34963
		},
		{
			"buffer":0,
			"byteLength":96,
			"byteOffset":16880,
			"target":34962
		},
		{
			"buffer":0,
			"byteLength":96,
			"byteOffset":16976,
			"target":34962
		},
		{
			"buffer":0,
			"byteLength":64,
			"byteOffset":17072,
			"target":34962
		},
		{
			"buffer":0,
			"byteLength":24,
			"byteOffset":17136,
			"target":34963
		},
		{
			"buffer":0,
			"byteLength":1536,
			"byteOffset":17160,
			"target":34962
		},
		{
			"buffer":0,
			"byteLength":1536,
			"byteOffset":18696,
			"target":34962
		},
		{
			"buffer":0,
			"byteLength":1024,
			"byteOffset":20232,
			"target":34962
		},
		{
			"buffer":0,
			"byteLength":384,
			"byteOffset":21256,
			"target":34963
		},
		{
			"buffer":0,
			"byteLength":96,
			"byteOffset":21640,
			"target":34962
		},
		{
			"buffer":0,
			"byteLength":96,
			"byteOffset":21736,
			"target":34962
		},
		{
			"buffer":0,
			"byteLength":64,
			"byteOffset":21832,
			"target":34962
		},
		{
			"buffer":0,
			"byteLength":2184,
			"byteOffset":21896,
			"target":34962
		},
		{
			"buffer":0,
			"byteLength":2184,
			"byteOffset":24080,
			"target":34962
		},
		{
			"buffer":0,
			"byteLength":1456,
			"byteOffset":26264,
			"target":34962
		},
		{
			"buffer":0,
			"byteLength":780,
			"byteOffset":27720,
			"target":34963
		},
		{
			"buffer":0,
			"byteLength":2184,
			"byteOffset":28500,
			"target":34962
		},
		{
			"buffer":0,
			"byteLength":2184,
			"byteOffset":30684,
			"target":34962
		},
		{
			"buffer":0,
			"byteLength":1456,
			"byteOffset":32868,
			"target":34962
		},
		{
			"buffer":0,
			"byteLength":2184,
			"byteOffset":34324,
			"target":34962
		},
		{
			"buffer":0,
			"byteLength":2184,
			"byteOffset":36508,
			"target":34962
		},
		{
			"buffer":0,
			"byteLength":1456,
			"byteOffset":38692,
			"target":34962
		},
		{
			"buffer":0,
			"byteLength":2184,
			"byteOffset":40148,
			"target":34962
		},
		{
			"buffer":0,
			"byteLength":2184,
			"byteOffset":42332,
			"target":34962
		},
		{
			"buffer":0,
			"byteLength":1456,
			"byteOffset":44516,
			"target":34962
		},
		{
			"buffer":0,
			"byteLength":780,
			"byteOffset":45972,
			"target":34963
		}
	],
	"buffers":[
		{
			"byteLength":46752,
			"uri":"111.bin"
		}
	]
}
