{
	"asset":{
		"generator":"Khronos glTF Blender I/O v4.3.47",
		"version":"2.0"
	},
	"scene":0,
	"scenes":[
		{
			"name":"Scene",
			"nodes":[
				0
			]
		}
	],
	"nodes":[
		{
			"mesh":0,
			"name":"Pedestal.001"
		}
	],
	"materials":[
		{
			"doubleSided":true,
			"name":"pedestal.003",
			"normalTexture":{
				"index":0,
				"scale":3
			},
			"pbrMetallicRoughness":{
				"baseColorTexture":{
					"index":1
				},
				"metallicRoughnessTexture":{
					"index":2
				}
			}
		}
	],
	"meshes":[
		{
			"name":"Pedestal.003",
			"primitives":[
				{
					"attributes":{
						"POSITION":0,
						"NORMAL":1,
						"TEXCOORD_0":2
					},
					"indices":3,
					"material":0
				}
			]
		}
	],
	"textures":[
		{
			"sampler":0,
			"source":0
		},
		{
			"sampler":0,
			"source":1
		},
		{
			"sampler":0,
			"source":2
		}
	],
	"images":[
		{
			"mimeType":"image/png",
			"name":"pedestal_Normal_OpenGL",
			"uri":"pedestal_Normal_OpenGL.png"
		},
		{
			"mimeType":"image/png",
			"name":"pedestal_Base_Color",
			"uri":"pedestal_Base_Color.png"
		},
		{
			"mimeType":"image/png",
			"name":"pedestal_Metallic.png-pedestal_Roughness.png",
			"uri":"pedestal_Metallic_png-pedestal_Roughness_png.png"
		}
	],
	"accessors":[
		{
			"bufferView":0,
			"componentType":5126,
			"count":2701,
			"max":[
				1.0000001192092896,
				0.8478915095329285,
				1.000000238418579
			],
			"min":[
				-1.0000001192092896,
				-0.0014309121761471033,
				-1.0000001192092896
			],
			"type":"VEC3"
		},
		{
			"bufferView":1,
			"componentType":5126,
			"count":2701,
			"type":"VEC3"
		},
		{
			"bufferView":2,
			"componentType":5126,
			"count":2701,
			"type":"VEC2"
		},
		{
			"bufferView":3,
			"componentType":5123,
			"count":9375,
			"type":"SCALAR"
		}
	],
	"bufferViews":[
		{
			"buffer":0,
			"byteLength":32412,
			"byteOffset":0,
			"target":34962
		},
		{
			"buffer":0,
			"byteLength":32412,
			"byteOffset":32412,
			"target":34962
		},
		{
			"buffer":0,
			"byteLength":21608,
			"byteOffset":64824,
			"target":34962
		},
		{
			"buffer":0,
			"byteLength":18750,
			"byteOffset":86432,
			"target":34963
		}
	],
	"samplers":[
		{
			"magFilter":9729,
			"minFilter":9987
		}
	],
	"buffers":[
		{
			"byteLength":105184,
			"uri":"stend.bin"
		}
	]
}
