{
	"asset":{
		"generator":"Khronos glTF Blender I/O v4.3.47",
		"version":"2.0"
	},
	"extensionsUsed":[
		"KHR_materials_specular",
		"KHR_materials_ior"
	],
	"scene":0,
	"scenes":[
		{
			"name":"Scene",
			"nodes":[
				0,
				1
			]
		}
	],
	"nodes":[
		{
			"mesh":0,
			"name":"Cube_003.001",
			"rotation":[
				0.0017822179943323135,
				-0.9999984502792358,
				0,
				7.525709122546687e-08
			]
		},
		{
			"mesh":1,
			"name":"Cube_012.001",
			"rotation":[
				0,
				-1,
				0,
				7.549790126404332e-08
			]
		}
	],
	"materials":[
		{
			"doubleSided":true,
			"name":"Wooden Box",
			"pbrMetallicRoughness":{
				"baseColorTexture":{
					"index":0
				},
				"metallicFactor":0,
				"roughnessFactor":0.5
			}
		},
		{
			"doubleSided":true,
			"extensions":{
				"KHR_materials_specular":{
					"specularColorFactor":[
						2.0,
						2.0,
						2.0
					]
				},
				"KHR_materials_ior":{
					"ior":1.4500000476837158
				}
			},
			"name":"Metal",
			"pbrMetallicRoughness":{
				"baseColorTexture":{
					"index":1
				},
				"roughnessFactor":0.5
			}
		},
		{
			"doubleSided":true,
			"extensions":{
				"KHR_materials_specular":{
					"specularColorFactor":[
						2.0,
						2.0,
						2.0
					]
				},
				"KHR_materials_ior":{
					"ior":1.4500000476837158
				}
			},
			"name":"Paper",
			"pbrMetallicRoughness":{
				"baseColorTexture":{
					"index":2
				},
				"metallicFactor":0,
				"roughnessFactor":0.29545456171035767
			}
		}
	],
	"meshes":[
		{
			"name":"Cube_064.004",
			"primitives":[
				{
					"attributes":{
						"POSITION":0,
						"NORMAL":1,
						"TEXCOORD_0":2
					},
					"indices":3,
					"material":0
				},
				{
					"attributes":{
						"POSITION":4,
						"NORMAL":5,
						"TEXCOORD_0":6
					},
					"indices":7,
					"material":1
				},
				{
					"attributes":{
						"POSITION":8,
						"NORMAL":9,
						"TEXCOORD_0":10
					},
					"indices":11,
					"material":2
				}
			]
		},
		{
			"name":"Cube_010.004",
			"primitives":[
				{
					"attributes":{
						"POSITION":12,
						"NORMAL":13,
						"TEXCOORD_0":14
					},
					"indices":15,
					"material":0
				},
				{
					"attributes":{
						"POSITION":16,
						"NORMAL":17,
						"TEXCOORD_0":18
					},
					"indices":19,
					"material":1
				}
			]
		}
	],
	"textures":[
		{
			"sampler":0,
			"source":0
		},
		{
			"sampler":0,
			"source":0
		},
		{
			"sampler":0,
			"source":0
		}
	],
	"images":[
		{
			"mimeType":"image/png",
			"name":"box",
			"uri":"box.png"
		}
	],
	"accessors":[
		{
			"bufferView":0,
			"componentType":5126,
			"count":2854,
			"max":[
				-0.4634213447570801,
				1.3854031562805176,
				0.8302519917488098
			],
			"min":[
				-0.7611739635467529,
				0.47204965353012085,
				-0.8217806220054626
			],
			"type":"VEC3"
		},
		{
			"bufferView":1,
			"componentType":5126,
			"count":2854,
			"type":"VEC3"
		},
		{
			"bufferView":2,
			"componentType":5126,
			"count":2854,
			"type":"VEC2"
		},
		{
			"bufferView":3,
			"componentType":5123,
			"count":7332,
			"type":"SCALAR"
		},
		{
			"bufferView":4,
			"componentType":5126,
			"count":1398,
			"max":[
				-0.4552353620529175,
				1.3823974132537842,
				0.6304455995559692
			],
			"min":[
				-0.6916126012802124,
				0.49162557721138,
				-0.6291279196739197
			],
			"type":"VEC3"
		},
		{
			"bufferView":5,
			"componentType":5126,
			"count":1398,
			"type":"VEC3"
		},
		{
			"bufferView":6,
			"componentType":5126,
			"count":1398,
			"type":"VEC2"
		},
		{
			"bufferView":7,
			"componentType":5123,
			"count":5268,
			"type":"SCALAR"
		},
		{
			"bufferView":8,
			"componentType":5126,
			"count":25,
			"max":[
				-0.6035321950912476,
				1.2872835397720337,
				0.3641919493675232
			],
			"min":[
				-0.7326548099517822,
				0.5625760555267334,
				-0.33029237389564514
			],
			"type":"VEC3"
		},
		{
			"bufferView":9,
			"componentType":5126,
			"count":25,
			"type":"VEC3"
		},
		{
			"bufferView":10,
			"componentType":5126,
			"count":25,
			"type":"VEC2"
		},
		{
			"bufferView":11,
			"componentType":5123,
			"count":63,
			"type":"SCALAR"
		},
		{
			"bufferView":12,
			"componentType":5126,
			"count":8905,
			"max":[
				0.44086307287216187,
				0.49751442670822144,
				0.8302270174026489
			],
			"min":[
				-0.4635310173034668,
				0.01772284507751465,
				-0.8218199610710144
			],
			"type":"VEC3"
		},
		{
			"bufferView":13,
			"componentType":5126,
			"count":8905,
			"type":"VEC3"
		},
		{
			"bufferView":14,
			"componentType":5126,
			"count":8905,
			"type":"VEC2"
		},
		{
			"bufferView":15,
			"componentType":5123,
			"count":27894,
			"type":"SCALAR"
		},
		{
			"bufferView":16,
			"componentType":5126,
			"count":636,
			"max":[
				0.45596206188201904,
				0.49653637409210205,
				0.6314610838890076
			],
			"min":[
				-0.46099841594696045,
				0.31456422805786133,
				-0.6293417811393738
			],
			"type":"VEC3"
		},
		{
			"bufferView":17,
			"componentType":5126,
			"count":636,
			"type":"VEC3"
		},
		{
			"bufferView":18,
			"componentType":5126,
			"count":636,
			"type":"VEC2"
		},
		{
			"bufferView":19,
			"componentType":5123,
			"count":3012,
			"type":"SCALAR"
		}
	],
	"bufferViews":[
		{
			"buffer":0,
			"byteLength":34248,
			"byteOffset":0,
			"target":34962
		},
		{
			"buffer":0,
			"byteLength":34248,
			"byteOffset":34248,
			"target":34962
		},
		{
			"buffer":0,
			"byteLength":22832,
			"byteOffset":68496,
			"target":34962
		},
		{
			"buffer":0,
			"byteLength":14664,
			"byteOffset":91328,
			"target":34963
		},
		{
			"buffer":0,
			"byteLength":16776,
			"byteOffset":105992,
			"target":34962
		},
		{
			"buffer":0,
			"byteLength":16776,
			"byteOffset":122768,
			"target":34962
		},
		{
			"buffer":0,
			"byteLength":11184,
			"byteOffset":139544,
			"target":34962
		},
		{
			"buffer":0,
			"byteLength":10536,
			"byteOffset":150728,
			"target":34963
		},
		{
			"buffer":0,
			"byteLength":300,
			"byteOffset":161264,
			"target":34962
		},
		{
			"buffer":0,
			"byteLength":300,
			"byteOffset":161564,
			"target":34962
		},
		{
			"buffer":0,
			"byteLength":200,
			"byteOffset":161864,
			"target":34962
		},
		{
			"buffer":0,
			"byteLength":126,
			"byteOffset":162064,
			"target":34963
		},
		{
			"buffer":0,
			"byteLength":106860,
			"byteOffset":162192,
			"target":34962
		},
		{
			"buffer":0,
			"byteLength":106860,
			"byteOffset":269052,
			"target":34962
		},
		{
			"buffer":0,
			"byteLength":71240,
			"byteOffset":375912,
			"target":34962
		},
		{
			"buffer":0,
			"byteLength":55788,
			"byteOffset":447152,
			"target":34963
		},
		{
			"buffer":0,
			"byteLength":7632,
			"byteOffset":502940,
			"target":34962
		},
		{
			"buffer":0,
			"byteLength":7632,
			"byteOffset":510572,
			"target":34962
		},
		{
			"buffer":0,
			"byteLength":5088,
			"byteOffset":518204,
			"target":34962
		},
		{
			"buffer":0,
			"byteLength":6024,
			"byteOffset":523292,
			"target":34963
		}
	],
	"samplers":[
		{
			"magFilter":9729,
			"minFilter":9987
		}
	],
	"buffers":[
		{
			"byteLength":529316,
			"uri":"box.bin"
		}
	]
}
