{
	"asset":{
		"generator":"Khronos glTF Blender I/O v4.3.47",
		"version":"2.0"
	},
	"extensionsUsed":[
		"KHR_materials_specular",
		"KHR_texture_transform"
	],
	"extensionsRequired":[
		"KHR_texture_transform"
	],
	"scene":0,
	"scenes":[
		{
			"name":"Scene",
			"nodes":[
				0
			]
		}
	],
	"nodes":[
		{
			"mesh":0,
			"name":"cub",
			"rotation":[
				0.449510782957077,
				0,
				0,
				0.8932749032974243
			],
			"scale":[
				0.13385078310966492,
				0.1338507980108261,
				0.1338507980108261
			]
		}
	],
	"materials":[
		{
			"doubleSided":true,
			"extensions":{
				"KHR_materials_specular":{
					"specularFactor":0.30000001192092896
				}
			},
			"name":"m1",
			"normalTexture":{
				"extensions":{
					"KHR_texture_transform":{
						"offset":[
							0,
							-4
						],
						"scale":[
							5,
							5
						]
					}
				},
				"index":0
			},
			"pbrMetallicRoughness":{
				"baseColorTexture":{
					"extensions":{
						"KHR_texture_transform":{
							"offset":[
								0,
								-4
							],
							"scale":[
								5,
								5
							]
						}
					},
					"index":1
				},
				"metallicFactor":0,
				"roughnessFactor":0.8500000238418579
			}
		},
		{
			"doubleSided":true,
			"extensions":{
				"KHR_materials_specular":{
					"specularFactor":0.30000001192092896
				}
			},
			"name":"m2",
			"normalTexture":{
				"extensions":{
					"KHR_texture_transform":{
						"offset":[
							0,
							-4
						],
						"scale":[
							5,
							5
						]
					}
				},
				"index":2
			},
			"pbrMetallicRoughness":{
				"baseColorTexture":{
					"extensions":{
						"KHR_texture_transform":{
							"offset":[
								0,
								-4
							],
							"scale":[
								5,
								5
							]
						}
					},
					"index":3
				},
				"metallicFactor":0,
				"roughnessFactor":0.8500000238418579
			}
		},
		{
			"doubleSided":true,
			"extensions":{
				"KHR_materials_specular":{
					"specularFactor":0.30000001192092896
				}
			},
			"name":"m3",
			"normalTexture":{
				"extensions":{
					"KHR_texture_transform":{
						"offset":[
							0,
							-4
						],
						"scale":[
							5,
							5
						]
					}
				},
				"index":4
			},
			"pbrMetallicRoughness":{
				"baseColorTexture":{
					"extensions":{
						"KHR_texture_transform":{
							"offset":[
								0,
								-4
							],
							"scale":[
								5,
								5
							]
						}
					},
					"index":5
				},
				"metallicFactor":0,
				"roughnessFactor":0.8500000238418579
			}
		}
	],
	"meshes":[
		{
			"name":"cub",
			"primitives":[
				{
					"attributes":{
						"POSITION":0,
						"NORMAL":1,
						"TEXCOORD_0":2
					},
					"indices":3,
					"material":0
				},
				{
					"attributes":{
						"POSITION":4,
						"NORMAL":5,
						"TEXCOORD_0":6
					},
					"indices":7,
					"material":1
				},
				{
					"attributes":{
						"POSITION":8,
						"NORMAL":9,
						"TEXCOORD_0":10
					},
					"indices":11,
					"material":2
				}
			]
		}
	],
	"textures":[
		{
			"sampler":0,
			"source":0
		},
		{
			"sampler":0,
			"source":1
		},
		{
			"sampler":0,
			"source":2
		},
		{
			"sampler":0,
			"source":3
		},
		{
			"sampler":0,
			"source":0
		},
		{
			"sampler":0,
			"source":4
		}
	],
	"images":[
		{
			"mimeType":"image/png",
			"name":"NormalMap (7)",
			"uri":"NormalMap%207.png"
		},
		{
			"mimeType":"image/jpeg",
			"name":"clay-5",
			"uri":"clay-5.jpg"
		},
		{
			"mimeType":"image/png",
			"name":"NormalMap (6)",
			"uri":"NormalMap%206.png"
		},
		{
			"mimeType":"image/jpeg",
			"name":"clay-66",
			"uri":"clay-66.jpg"
		},
		{
			"mimeType":"image/jpeg",
			"name":"Map2",
			"uri":"Map2.jpg"
		}
	],
	"accessors":[
		{
			"bufferView":0,
			"componentType":5126,
			"count":37829,
			"max":[
				6.384060382843018,
				19.658126831054688,
				-6.301918029785156
			],
			"min":[
				-6.386265277862549,
				2.685840606689453,
				-26.513912200927734
			],
			"type":"VEC3"
		},
		{
			"bufferView":1,
			"componentType":5126,
			"count":37829,
			"type":"VEC3"
		},
		{
			"bufferView":2,
			"componentType":5126,
			"count":37829,
			"type":"VEC2"
		},
		{
			"bufferView":3,
			"componentType":5123,
			"count":38259,
			"type":"SCALAR"
		},
		{
			"bufferView":4,
			"componentType":5126,
			"count":25926,
			"max":[
				5.688356399536133,
				21.356767654418945,
				-0.07506942749023438
			],
			"min":[
				-5.542580604553223,
				-0.1555938720703125,
				-24.952531814575195
			],
			"type":"VEC3"
		},
		{
			"bufferView":5,
			"componentType":5126,
			"count":25926,
			"type":"VEC3"
		},
		{
			"bufferView":6,
			"componentType":5126,
			"count":25926,
			"type":"VEC2"
		},
		{
			"bufferView":7,
			"componentType":5123,
			"count":26202,
			"type":"SCALAR"
		},
		{
			"bufferView":8,
			"componentType":5126,
			"count":5983,
			"max":[
				5.682858467102051,
				19.65744972229004,
				-6.211179733276367
			],
			"min":[
				-5.454639911651611,
				2.608591079711914,
				-25.106103897094727
			],
			"type":"VEC3"
		},
		{
			"bufferView":9,
			"componentType":5126,
			"count":5983,
			"type":"VEC3"
		},
		{
			"bufferView":10,
			"componentType":5126,
			"count":5983,
			"type":"VEC2"
		},
		{
			"bufferView":11,
			"componentType":5123,
			"count":6045,
			"type":"SCALAR"
		}
	],
	"bufferViews":[
		{
			"buffer":0,
			"byteLength":453948,
			"byteOffset":0,
			"target":34962
		},
		{
			"buffer":0,
			"byteLength":453948,
			"byteOffset":453948,
			"target":34962
		},
		{
			"buffer":0,
			"byteLength":302632,
			"byteOffset":907896,
			"target":34962
		},
		{
			"buffer":0,
			"byteLength":76518,
			"byteOffset":1210528,
			"target":34963
		},
		{
			"buffer":0,
			"byteLength":311112,
			"byteOffset":1287048,
			"target":34962
		},
		{
			"buffer":0,
			"byteLength":311112,
			"byteOffset":1598160,
			"target":34962
		},
		{
			"buffer":0,
			"byteLength":207408,
			"byteOffset":1909272,
			"target":34962
		},
		{
			"buffer":0,
			"byteLength":52404,
			"byteOffset":2116680,
			"target":34963
		},
		{
			"buffer":0,
			"byteLength":71796,
			"byteOffset":2169084,
			"target":34962
		},
		{
			"buffer":0,
			"byteLength":71796,
			"byteOffset":2240880,
			"target":34962
		},
		{
			"buffer":0,
			"byteLength":47864,
			"byteOffset":2312676,
			"target":34962
		},
		{
			"buffer":0,
			"byteLength":12090,
			"byteOffset":2360540,
			"target":34963
		}
	],
	"samplers":[
		{
			"magFilter":9729,
			"minFilter":9987
		}
	],
	"buffers":[
		{
			"byteLength":2372632,
			"uri":"amfora.bin"
		}
	]
}
